<svg width="1000" height="1000" viewBox="0 0 1000 1000" fill="none" xmlns="http://www.w3.org/2000/svg">
<g clip-path="url(#clip0_145_126)">
<path d="M429.813 216.189H353.886L326.045 291.429C288.252 393.559 272.895 432.571 244.639 460.827C216.383 489.084 177.372 504.444 75.2394 542.235L0 570.075V646.002L75.2394 673.842C177.372 711.633 216.383 726.993 244.639 755.249C272.895 783.506 288.252 822.518 326.045 924.647L353.886 999.888H429.813L457.653 924.647C495.443 822.518 510.804 783.506 539.06 755.249C567.317 726.993 606.329 711.633 708.458 673.842L783.698 646.002V570.075L708.458 542.235C606.329 504.444 567.317 489.084 539.06 460.827C510.804 432.571 495.443 393.559 457.653 291.429L429.813 216.189Z" fill="black"/>
<path d="M862.237 0H786.445L774.533 32.1895C757.632 77.8656 752.714 88.6698 745.034 96.3484C737.353 104.028 726.549 108.947 680.873 125.848L648.688 137.76V213.554L680.873 225.465C726.549 242.367 737.353 247.286 745.034 254.964C752.714 262.643 757.632 273.448 774.533 319.124L786.445 351.313H862.237L874.149 319.124C891.05 273.448 895.969 262.643 903.649 254.964C911.329 247.286 922.133 242.367 967.81 225.465L1000 213.554V137.76L967.81 125.848C922.133 108.947 911.329 104.028 903.649 96.3484C895.969 88.6698 891.05 77.8656 874.149 32.1895L862.237 0Z" fill="black"/>
</g>
<defs>
<clipPath id="clip0_145_126">
<rect width="1000" height="1000" fill="white"/>
</clipPath>
</defs>
</svg>
